<svg data-v-423bf9ae="" xmlns="http://www.w3.org/2000/svg" viewBox="0 0 730 90" class="iconLeftSlogan"><!----><!----><!----><g data-v-423bf9ae="" id="829215b3-e1a4-4c6b-ae94-1a1c0a07d5e0" fill="black" transform="matrix(4.1039674680923515,0,0,4.1039674680923515,150.16273033912768,-11.03967320083649)"><path d="M9.00 12.08L9.00 12.75L9.00 12.75Q8.60 13.08 8.15 13.29L8.15 13.29L8.15 13.29Q7.69 13.49 7.25 13.60L7.25 13.60L7.25 13.60Q6.81 13.71 6.42 13.74L6.42 13.74L6.42 13.74Q6.04 13.78 5.78 13.78L5.78 13.78L5.78 13.78Q4.83 13.78 3.97 13.42L3.97 13.42L3.97 13.42Q3.12 13.06 2.48 12.40L2.48 12.40L2.48 12.40Q1.84 11.74 1.47 10.83L1.47 10.83L1.47 10.83Q1.09 9.91 1.09 8.80L1.09 8.80L1.09 8.80Q1.09 8.01 1.29 7.31L1.29 7.31L1.29 7.31Q1.48 6.61 1.84 6.02L1.84 6.02L1.84 6.02Q2.19 5.43 2.68 4.96L2.68 4.96L2.68 4.96Q3.17 4.49 3.76 4.17L3.76 4.17L3.76 4.17Q4.35 3.84 5.02 3.67L5.02 3.67L5.02 3.67Q5.69 3.49 6.40 3.49L6.40 3.49L6.40 3.49Q6.63 3.49 6.93 3.51L6.93 3.51L6.93 3.51Q7.23 3.53 7.56 3.59L7.56 3.59L7.56 3.59Q7.90 3.64 8.26 3.74L8.26 3.74L8.26 3.74Q8.63 3.83 8.99 3.97L8.99 3.97L8.80 4.92L8.66 4.98L8.66 4.98Q8.31 4.82 7.96 4.71L7.96 4.71L7.96 4.71Q7.60 4.59 7.27 4.53L7.27 4.53L7.27 4.53Q6.94 4.46 6.65 4.44L6.65 4.44L6.65 4.44Q6.36 4.41 6.13 4.41L6.13 4.41L6.13 4.41Q5.56 4.41 5.04 4.56L5.04 4.56L5.04 4.56Q4.52 4.72 4.07 4.99L4.07 4.99L4.07 4.99Q3.63 5.27 3.27 5.66L3.27 5.66L3.27 5.66Q2.92 6.05 2.67 6.52L2.67 6.52L2.67 6.52Q2.41 6.99 2.28 7.53L2.28 7.53L2.28 7.53Q2.14 8.07 2.14 8.65L2.14 8.65L2.14 8.65Q2.14 9.17 2.25 9.68L2.25 9.68L2.25 9.68Q2.36 10.19 2.58 10.65L2.58 10.65L2.58 10.65Q2.80 11.12 3.13 11.53L3.13 11.53L3.13 11.53Q3.47 11.93 3.91 12.22L3.91 12.22L3.91 12.22Q4.35 12.52 4.91 12.69L4.91 12.69L4.91 12.69Q5.46 12.86 6.13 12.86L6.13 12.86L6.13 12.86Q6.36 12.86 6.68 12.83L6.68 12.83L6.68 12.83Q6.99 12.80 7.37 12.72L7.37 12.72L7.37 12.72Q7.75 12.64 8.16 12.49L8.16 12.49L8.16 12.49Q8.57 12.33 9.00 12.08L9.00 12.08ZM11.13 13.64L11.13 2.69L12.11 2.69L12.11 7.63L12.11 7.63Q12.34 7.40 12.63 7.16L12.63 7.16L12.63 7.16Q12.92 6.92 13.26 6.72L13.26 6.72L13.26 6.72Q13.60 6.51 13.99 6.39L13.99 6.39L13.99 6.39Q14.38 6.26 14.81 6.26L14.81 6.26L14.81 6.26Q15.31 6.26 15.72 6.44L15.72 6.44L15.72 6.44Q16.13 6.62 16.43 6.95L16.43 6.95L16.43 6.95Q16.73 7.27 16.90 7.74L16.90 7.74L16.90 7.74Q17.07 8.21 17.07 8.79L17.07 8.79L17.07 13.64L16.09 13.64L16.09 8.93L16.09 8.93Q16.09 8.50 15.98 8.18L15.98 8.18L15.98 8.18Q15.86 7.85 15.65 7.63L15.65 7.63L15.65 7.63Q15.44 7.41 15.15 7.30L15.15 7.30L15.15 7.30Q14.86 7.18 14.52 7.18L14.52 7.18L14.52 7.18Q13.90 7.18 13.30 7.52L13.30 7.52L13.30 7.52Q12.71 7.86 12.11 8.46L12.11 8.46L12.11 13.64L11.13 13.64ZM19.58 13.64L19.58 6.40L20.36 6.40L20.51 8.50L20.51 8.50Q20.75 8.01 21.02 7.60L21.02 7.60L21.02 7.60Q21.29 7.19 21.59 6.89L21.59 6.89L21.59 6.89Q21.90 6.60 22.25 6.43L22.25 6.43L22.25 6.43Q22.60 6.26 23.02 6.26L23.02 6.26L23.02 6.26Q23.21 6.26 23.35 6.30L23.35 6.30L23.35 6.30Q23.50 6.34 23.68 6.43L23.68 6.43L23.58 7.32L23.58 7.32Q23.49 7.29 23.34 7.27L23.34 7.27L23.34 7.27Q23.19 7.26 23.06 7.26L23.06 7.26L23.06 7.26Q22.74 7.26 22.43 7.38L22.43 7.38L22.43 7.38Q22.12 7.49 21.81 7.76L21.81 7.76L21.81 7.76Q21.50 8.03 21.19 8.46L21.19 8.46L21.19 8.46Q20.88 8.89 20.56 9.53L20.56 9.53L20.56 13.64L19.58 13.64ZM25.31 13.64L25.31 6.40L26.29 6.40L26.29 13.64L25.31 13.64ZM25.09 3.97L25.09 3.97L25.09 3.97Q25.09 3.82 25.14 3.69L25.14 3.69L25.14 3.69Q25.20 3.56 25.30 3.47L25.30 3.47L25.30 3.47Q25.40 3.37 25.53 3.31L25.53 3.31L25.53 3.31Q25.66 3.25 25.80 3.25L25.80 3.25L25.80 3.25Q25.95 3.25 26.08 3.31L26.08 3.31L26.08 3.31Q26.21 3.37 26.30 3.47L26.30 3.47L26.30 3.47Q26.40 3.56 26.46 3.69L26.46 3.69L26.46 3.69Q26.52 3.82 26.52 3.97L26.52 3.97L26.52 3.97Q26.52 4.12 26.46 4.25L26.46 4.25L26.46 4.25Q26.40 4.38 26.30 4.48L26.30 4.48L26.30 4.48Q26.21 4.57 26.08 4.63L26.08 4.63L26.08 4.63Q25.95 4.68 25.80 4.68L25.80 4.68L25.80 4.68Q25.66 4.68 25.53 4.63L25.53 4.63L25.53 4.63Q25.40 4.57 25.30 4.48L25.30 4.48L25.30 4.48Q25.20 4.38 25.14 4.25L25.14 4.25L25.14 4.25Q25.09 4.12 25.09 3.97ZM28.40 13.30L28.62 12.43L28.75 12.35L28.75 12.35Q29.00 12.50 29.29 12.60L29.29 12.60L29.29 12.60Q29.57 12.69 29.84 12.76L29.84 12.76L29.84 12.76Q30.11 12.82 30.37 12.85L30.37 12.85L30.37 12.85Q30.63 12.89 30.84 12.89L30.84 12.89L30.84 12.89Q31.19 12.89 31.49 12.80L31.49 12.80L31.49 12.80Q31.79 12.72 32.01 12.57L32.01 12.57L32.01 12.57Q32.23 12.41 32.35 12.20L32.35 12.20L32.35 12.20Q32.48 11.98 32.48 11.71L32.48 11.71L32.48 11.71Q32.48 11.39 32.31 11.18L32.31 11.18L32.31 11.18Q32.14 10.96 31.87 10.82L31.87 10.82L31.87 10.82Q31.60 10.67 31.24 10.56L31.24 10.56L31.24 10.56Q30.89 10.46 30.53 10.35L30.53 10.35L30.53 10.35Q30.16 10.24 29.81 10.10L29.81 10.10L29.81 10.10Q29.46 9.97 29.18 9.76L29.18 9.76L29.18 9.76Q28.91 9.56 28.74 9.26L28.74 9.26L28.74 9.26Q28.57 8.96 28.57 8.52L28.57 8.52L28.57 8.52Q28.57 8.06 28.77 7.65L28.77 7.65L28.77 7.65Q28.97 7.24 29.33 6.93L29.33 6.93L29.33 6.93Q29.69 6.62 30.18 6.44L30.18 6.44L30.18 6.44Q30.67 6.26 31.27 6.26L31.27 6.26L31.27 6.26Q31.44 6.26 31.66 6.28L31.66 6.28L31.66 6.28Q31.88 6.30 32.13 6.33L32.13 6.33L32.13 6.33Q32.38 6.36 32.64 6.42L32.64 6.42L32.64 6.42Q32.90 6.47 33.15 6.56L33.15 6.56L32.90 7.45L32.78 7.53L32.78 7.53Q32.60 7.45 32.38 7.38L32.38 7.38L32.38 7.38Q32.16 7.31 31.94 7.26L31.94 7.26L31.94 7.26Q31.71 7.21 31.49 7.18L31.49 7.18L31.49 7.18Q31.26 7.16 31.07 7.16L31.07 7.16L31.07 7.16Q30.72 7.16 30.43 7.24L30.43 7.24L30.43 7.24Q30.14 7.33 29.93 7.48L29.93 7.48L29.93 7.48Q29.72 7.64 29.60 7.85L29.60 7.85L29.60 7.85Q29.48 8.06 29.48 8.31L29.48 8.31L29.48 8.31Q29.48 8.62 29.65 8.83L29.65 8.83L29.65 8.83Q29.82 9.04 30.10 9.18L30.10 9.18L30.10 9.18Q30.37 9.33 30.72 9.44L30.72 9.44L30.72 9.44Q31.08 9.55 31.45 9.66L31.45 9.66L31.45 9.66Q31.81 9.78 32.17 9.92L32.17 9.92L32.17 9.92Q32.52 10.06 32.80 10.27L32.80 10.27L32.80 10.27Q33.07 10.49 33.24 10.79L33.24 10.79L33.24 10.79Q33.41 11.09 33.41 11.53L33.41 11.53L33.41 11.53Q33.41 12.04 33.18 12.46L33.18 12.46L33.18 12.46Q32.95 12.88 32.56 13.17L32.56 13.17L32.56 13.17Q32.18 13.46 31.67 13.62L31.67 13.62L31.67 13.62Q31.17 13.78 30.62 13.78L30.62 13.78L30.62 13.78Q30.14 13.78 29.55 13.66L29.55 13.66L29.55 13.66Q28.96 13.54 28.40 13.30L28.40 13.30ZM36.15 11.90L36.15 7.27L34.67 7.27L34.76 6.74L34.76 6.74Q35.28 6.64 35.58 6.50L35.58 6.50L35.58 6.50Q35.89 6.36 36.07 6.13L36.07 6.13L36.07 6.13Q36.25 5.89 36.36 5.53L36.36 5.53L36.36 5.53Q36.47 5.16 36.61 4.60L36.61 4.60L37.17 4.60L37.17 6.40L39.85 6.40L39.60 7.27L37.13 7.27L37.13 11.55L37.13 11.55Q37.13 12.27 37.48 12.56L37.48 12.56L37.48 12.56Q37.84 12.86 38.48 12.86L38.48 12.86L38.48 12.86Q38.77 12.86 39.12 12.80L39.12 12.80L39.12 12.80Q39.46 12.74 39.76 12.63L39.76 12.63L39.76 13.29L39.76 13.29Q39.35 13.53 38.95 13.65L38.95 13.65L38.95 13.65Q38.55 13.78 38.13 13.78L38.13 13.78L38.13 13.78Q37.71 13.78 37.35 13.65L37.35 13.65L37.35 13.65Q36.99 13.52 36.72 13.28L36.72 13.28L36.72 13.28Q36.46 13.03 36.30 12.68L36.30 12.68L36.30 12.68Q36.15 12.33 36.15 11.90L36.15 11.90ZM44.45 13.78L44.45 13.78L44.45 13.78Q43.66 13.78 43.04 13.48L43.04 13.48L43.04 13.48Q42.41 13.19 41.98 12.69L41.98 12.69L41.98 12.69Q41.54 12.19 41.31 11.53L41.31 11.53L41.31 11.53Q41.08 10.88 41.08 10.16L41.08 10.16L41.08 10.16Q41.08 9.34 41.36 8.63L41.36 8.63L41.36 8.63Q41.65 7.92 42.16 7.40L42.16 7.40L42.16 7.40Q42.66 6.87 43.35 6.57L43.35 6.57L43.35 6.57Q44.03 6.26 44.82 6.26L44.82 6.26L44.82 6.26Q45.62 6.26 46.25 6.56L46.25 6.56L46.25 6.56Q46.87 6.86 47.30 7.37L47.30 7.37L47.30 7.37Q47.74 7.88 47.96 8.53L47.96 8.53L47.96 8.53Q48.19 9.19 48.19 9.91L48.19 9.91L48.19 9.91Q48.19 10.72 47.90 11.43L47.90 11.43L47.90 11.43Q47.61 12.13 47.11 12.66L47.11 12.66L47.11 12.66Q46.61 13.18 45.92 13.48L45.92 13.48L45.92 13.48Q45.24 13.78 44.45 13.78ZM44.64 12.89L44.64 12.89L44.64 12.89Q45.21 12.89 45.68 12.65L45.68 12.65L45.68 12.65Q46.14 12.42 46.47 12.03L46.47 12.03L46.47 12.03Q46.80 11.64 46.98 11.13L46.98 11.13L46.98 11.13Q47.16 10.62 47.16 10.07L47.16 10.07L47.16 10.07Q47.16 9.53 46.99 9.01L46.99 9.01L46.99 9.01Q46.82 8.48 46.49 8.07L46.49 8.07L46.49 8.07Q46.17 7.66 45.70 7.41L45.70 7.41L45.70 7.41Q45.23 7.16 44.63 7.16L44.63 7.16L44.63 7.16Q44.06 7.16 43.60 7.39L43.60 7.39L43.60 7.39Q43.13 7.62 42.80 8.00L42.80 8.00L42.80 8.00Q42.46 8.39 42.28 8.91L42.28 8.91L42.28 8.91Q42.10 9.42 42.10 9.98L42.10 9.98L42.10 9.98Q42.10 10.51 42.27 11.03L42.27 11.03L42.27 11.03Q42.44 11.55 42.77 11.97L42.77 11.97L42.77 11.97Q43.09 12.38 43.57 12.63L43.57 12.63L43.57 12.63Q44.04 12.89 44.64 12.89ZM51.23 8.44L51.23 12.52L51.23 12.52Q51.80 12.76 52.25 12.82L52.25 12.82L52.25 12.82Q52.69 12.89 52.95 12.89L52.95 12.89L52.95 12.89Q53.63 12.89 54.16 12.68L54.16 12.68L54.16 12.68Q54.69 12.47 55.07 12.09L55.07 12.09L55.07 12.09Q55.45 11.70 55.64 11.17L55.64 11.17L55.64 11.17Q55.84 10.64 55.84 9.99L55.84 9.99L55.84 9.99Q55.84 9.43 55.69 8.92L55.69 8.92L55.69 8.92Q55.54 8.41 55.24 8.02L55.24 8.02L55.24 8.02Q54.95 7.64 54.54 7.41L54.54 7.41L54.54 7.41Q54.13 7.18 53.61 7.18L53.61 7.18L53.61 7.18Q52.99 7.18 52.40 7.51L52.40 7.51L52.40 7.51Q51.81 7.83 51.23 8.44L51.23 8.44ZM51.23 13.56L51.23 17.31L50.25 17.31L50.25 6.40L51.03 6.40L51.17 7.68L51.17 7.68Q51.40 7.46 51.69 7.22L51.69 7.22L51.69 7.22Q51.98 6.97 52.34 6.76L52.34 6.76L52.34 6.76Q52.69 6.55 53.10 6.41L53.10 6.41L53.10 6.41Q53.50 6.26 53.97 6.26L53.97 6.26L53.97 6.26Q54.63 6.26 55.17 6.56L55.17 6.56L55.17 6.56Q55.71 6.86 56.08 7.35L56.08 7.35L56.08 7.35Q56.46 7.85 56.66 8.49L56.66 8.49L56.66 8.49Q56.87 9.13 56.87 9.82L56.87 9.82L56.87 9.82Q56.87 10.68 56.55 11.41L56.55 11.41L56.55 11.41Q56.23 12.14 55.68 12.67L55.68 12.67L55.68 12.67Q55.13 13.19 54.39 13.49L54.39 13.49L54.39 13.49Q53.64 13.78 52.78 13.78L52.78 13.78L52.78 13.78Q52.32 13.78 51.93 13.71L51.93 13.71L51.93 13.71Q51.54 13.64 51.23 13.56L51.23 13.56ZM58.93 13.64L58.93 2.69L59.91 2.69L59.91 7.63L59.91 7.63Q60.14 7.40 60.43 7.16L60.43 7.16L60.43 7.16Q60.72 6.92 61.07 6.72L61.07 6.72L61.07 6.72Q61.41 6.51 61.80 6.39L61.80 6.39L61.80 6.39Q62.19 6.26 62.62 6.26L62.62 6.26L62.62 6.26Q63.11 6.26 63.52 6.44L63.52 6.44L63.52 6.44Q63.94 6.62 64.24 6.95L64.24 6.95L64.24 6.95Q64.54 7.27 64.71 7.74L64.71 7.74L64.71 7.74Q64.87 8.21 64.87 8.79L64.87 8.79L64.87 13.64L63.90 13.64L63.90 8.93L63.90 8.93Q63.90 8.50 63.78 8.18L63.78 8.18L63.78 8.18Q63.66 7.85 63.45 7.63L63.45 7.63L63.45 7.63Q63.25 7.41 62.96 7.30L62.96 7.30L62.96 7.30Q62.67 7.18 62.32 7.18L62.32 7.18L62.32 7.18Q61.70 7.18 61.11 7.52L61.11 7.52L61.11 7.52Q60.51 7.86 59.91 8.46L59.91 8.46L59.91 13.64L58.93 13.64ZM72.85 12.43L72.85 13.10L72.85 13.10Q72.63 13.25 72.32 13.38L72.32 13.38L72.32 13.38Q72.02 13.50 71.68 13.59L71.68 13.59L71.68 13.59Q71.34 13.69 70.99 13.73L70.99 13.73L70.99 13.73Q70.64 13.78 70.33 13.78L70.33 13.78L70.33 13.78Q69.69 13.78 69.07 13.55L69.07 13.55L69.07 13.55Q68.46 13.32 67.99 12.87L67.99 12.87L67.99 12.87Q67.51 12.41 67.22 11.72L67.22 11.72L67.22 11.72Q66.94 11.04 66.94 10.12L66.94 10.12L66.94 10.12Q66.94 9.22 67.22 8.50L67.22 8.50L67.22 8.50Q67.50 7.79 67.97 7.29L67.97 7.29L67.97 7.29Q68.43 6.79 69.04 6.53L69.04 6.53L69.04 6.53Q69.64 6.26 70.27 6.26L70.27 6.26L70.27 6.26Q70.85 6.26 71.36 6.47L71.36 6.47L71.36 6.47Q71.88 6.69 72.27 7.08L72.27 7.08L72.27 7.08Q72.66 7.47 72.89 8.04L72.89 8.04L72.89 8.04Q73.12 8.60 73.12 9.30L73.12 9.30L73.12 9.30Q73.12 9.45 73.10 9.68L73.10 9.68L73.10 9.68Q73.09 9.92 73.06 10.16L73.06 10.16L67.96 10.16L67.96 10.16Q67.96 10.75 68.16 11.24L68.16 11.24L68.16 11.24Q68.36 11.73 68.73 12.09L68.73 12.09L68.73 12.09Q69.10 12.46 69.63 12.66L69.63 12.66L69.63 12.66Q70.16 12.86 70.83 12.86L70.83 12.86L70.83 12.86Q71.00 12.86 71.25 12.84L71.25 12.84L71.25 12.84Q71.49 12.82 71.76 12.78L71.76 12.78L71.76 12.78Q72.04 12.73 72.32 12.65L72.32 12.65L72.32 12.65Q72.60 12.56 72.85 12.43L72.85 12.43ZM67.96 9.38L72.16 9.38L72.16 9.38Q72.16 8.83 71.99 8.41L71.99 8.41L71.99 8.41Q71.82 8.00 71.54 7.72L71.54 7.72L71.54 7.72Q71.26 7.44 70.90 7.30L70.90 7.30L70.90 7.30Q70.53 7.16 70.14 7.16L70.14 7.16L70.14 7.16Q69.67 7.16 69.28 7.35L69.28 7.35L69.28 7.35Q68.88 7.54 68.59 7.85L68.59 7.85L68.59 7.85Q68.30 8.17 68.14 8.57L68.14 8.57L68.14 8.57Q67.98 8.97 67.96 9.38L67.96 9.38ZM75.23 13.64L75.23 6.40L76.01 6.40L76.15 8.50L76.15 8.50Q76.40 8.01 76.67 7.60L76.67 7.60L76.67 7.60Q76.93 7.19 77.24 6.89L77.24 6.89L77.24 6.89Q77.54 6.60 77.89 6.43L77.89 6.43L77.89 6.43Q78.24 6.26 78.67 6.26L78.67 6.26L78.67 6.26Q78.85 6.26 79.00 6.30L79.00 6.30L79.00 6.30Q79.15 6.34 79.32 6.43L79.32 6.43L79.22 7.32L79.22 7.32Q79.13 7.29 78.98 7.27L78.98 7.27L78.98 7.27Q78.83 7.26 78.71 7.26L78.71 7.26L78.71 7.26Q78.39 7.26 78.08 7.38L78.08 7.38L78.08 7.38Q77.77 7.49 77.45 7.76L77.45 7.76L77.45 7.76Q77.14 8.03 76.83 8.46L76.83 8.46L76.83 8.46Q76.52 8.89 76.21 9.53L76.21 9.53L76.21 13.64L75.23 13.64ZM88.44 3.63L92.19 13.64L91.01 13.64L89.99 10.77L85.66 10.77L84.64 13.64L83.58 13.64L87.33 3.63L88.44 3.63ZM87.45 5.76L85.99 9.86L89.66 9.86L88.20 5.76L87.89 4.63L87.75 4.63L87.45 5.76ZM95.11 8.44L95.11 12.52L95.11 12.52Q95.68 12.76 96.13 12.82L96.13 12.82L96.13 12.82Q96.57 12.89 96.83 12.89L96.83 12.89L96.83 12.89Q97.51 12.89 98.04 12.68L98.04 12.68L98.04 12.68Q98.57 12.47 98.95 12.09L98.95 12.09L98.95 12.09Q99.33 11.70 99.52 11.17L99.52 11.17L99.52 11.17Q99.72 10.64 99.72 9.99L99.72 9.99L99.72 9.99Q99.72 9.43 99.57 8.92L99.57 8.92L99.57 8.92Q99.42 8.41 99.12 8.02L99.12 8.02L99.12 8.02Q98.83 7.64 98.42 7.41L98.42 7.41L98.42 7.41Q98.01 7.18 97.49 7.18L97.49 7.18L97.49 7.18Q96.87 7.18 96.28 7.51L96.28 7.51L96.28 7.51Q95.69 7.83 95.11 8.44L95.11 8.44ZM95.11 13.56L95.11 17.31L94.13 17.31L94.13 6.40L94.91 6.40L95.05 7.68L95.05 7.68Q95.28 7.46 95.57 7.22L95.57 7.22L95.57 7.22Q95.86 6.97 96.22 6.76L96.22 6.76L96.22 6.76Q96.57 6.55 96.98 6.41L96.98 6.41L96.98 6.41Q97.38 6.26 97.85 6.26L97.85 6.26L97.85 6.26Q98.51 6.26 99.05 6.56L99.05 6.56L99.05 6.56Q99.59 6.86 99.96 7.35L99.96 7.35L99.96 7.35Q100.34 7.85 100.54 8.49L100.54 8.49L100.54 8.49Q100.75 9.13 100.75 9.82L100.75 9.82L100.75 9.82Q100.75 10.68 100.43 11.41L100.43 11.41L100.43 11.41Q100.11 12.14 99.56 12.67L99.56 12.67L99.56 12.67Q99.01 13.19 98.27 13.49L98.27 13.49L98.27 13.49Q97.52 13.78 96.66 13.78L96.66 13.78L96.66 13.78Q96.20 13.78 95.81 13.71L95.81 13.71L95.81 13.71Q95.42 13.64 95.11 13.56L95.11 13.56ZM105.74 13.78L105.74 13.78L105.74 13.78Q104.95 13.78 104.32 13.48L104.32 13.48L104.32 13.48Q103.69 13.19 103.26 12.69L103.26 12.69L103.26 12.69Q102.83 12.19 102.59 11.53L102.59 11.53L102.59 11.53Q102.36 10.88 102.36 10.16L102.36 10.16L102.36 10.16Q102.36 9.34 102.65 8.63L102.65 8.63L102.65 8.63Q102.94 7.92 103.44 7.40L103.44 7.40L103.44 7.40Q103.95 6.87 104.63 6.57L104.63 6.57L104.63 6.57Q105.31 6.26 106.11 6.26L106.11 6.26L106.11 6.26Q106.91 6.26 107.53 6.56L107.53 6.56L107.53 6.56Q108.16 6.86 108.59 7.37L108.59 7.37L108.59 7.37Q109.02 7.88 109.25 8.53L109.25 8.53L109.25 8.53Q109.47 9.19 109.47 9.91L109.47 9.91L109.47 9.91Q109.47 10.72 109.18 11.43L109.18 11.43L109.18 11.43Q108.90 12.13 108.39 12.66L108.39 12.66L108.39 12.66Q107.89 13.18 107.21 13.48L107.21 13.48L107.21 13.48Q106.52 13.78 105.74 13.78ZM105.92 12.89L105.92 12.89L105.92 12.89Q106.50 12.89 106.96 12.65L106.96 12.65L106.96 12.65Q107.43 12.42 107.75 12.03L107.75 12.03L107.75 12.03Q108.08 11.64 108.26 11.13L108.26 11.13L108.26 11.13Q108.45 10.62 108.45 10.07L108.45 10.07L108.45 10.07Q108.45 9.53 108.27 9.01L108.27 9.01L108.27 9.01Q108.10 8.48 107.78 8.07L107.78 8.07L107.78 8.07Q107.45 7.66 106.98 7.41L106.98 7.41L106.98 7.41Q106.51 7.16 105.91 7.16L105.91 7.16L105.91 7.16Q105.34 7.16 104.88 7.39L104.88 7.39L104.88 7.39Q104.42 7.62 104.08 8.00L104.08 8.00L104.08 8.00Q103.75 8.39 103.57 8.91L103.57 8.91L103.57 8.91Q103.39 9.42 103.39 9.98L103.39 9.98L103.39 9.98Q103.39 10.51 103.56 11.03L103.56 11.03L103.56 11.03Q103.73 11.55 104.05 11.97L104.05 11.97L104.05 11.97Q104.38 12.38 104.85 12.63L104.85 12.63L104.85 12.63Q105.32 12.89 105.92 12.89ZM116.72 11.61L116.72 7.52L116.72 7.52Q116.14 7.28 115.70 7.22L115.70 7.22L115.70 7.22Q115.25 7.16 115.00 7.16L115.00 7.16L115.00 7.16Q114.32 7.16 113.79 7.37L113.79 7.37L113.79 7.37Q113.25 7.57 112.88 7.96L112.88 7.96L112.88 7.96Q112.51 8.34 112.31 8.87L112.31 8.87L112.31 8.87Q112.11 9.41 112.11 10.05L112.11 10.05L112.11 10.05Q112.11 10.62 112.26 11.13L112.26 11.13L112.26 11.13Q112.42 11.64 112.71 12.02L112.71 12.02L112.71 12.02Q113.00 12.41 113.41 12.63L113.41 12.63L113.41 12.63Q113.83 12.86 114.34 12.86L114.34 12.86L114.34 12.86Q114.97 12.86 115.55 12.53L115.55 12.53L115.55 12.53Q116.14 12.21 116.72 11.61L116.72 11.61ZM116.72 6.48L116.72 2.69L117.69 2.69L117.69 13.64L116.92 13.64L116.77 12.37L116.77 12.37Q116.55 12.58 116.26 12.82L116.26 12.82L116.26 12.82Q115.96 13.07 115.61 13.28L115.61 13.28L115.61 13.28Q115.26 13.49 114.85 13.64L114.85 13.64L114.85 13.64Q114.43 13.78 113.98 13.78L113.98 13.78L113.98 13.78Q113.31 13.78 112.78 13.48L112.78 13.48L112.78 13.48Q112.25 13.19 111.87 12.69L111.87 12.69L111.87 12.69Q111.49 12.20 111.29 11.56L111.29 11.56L111.29 11.56Q111.08 10.92 111.08 10.23L111.08 10.23L111.08 10.23Q111.08 9.36 111.40 8.63L111.40 8.63L111.40 8.63Q111.72 7.90 112.27 7.38L112.27 7.38L112.27 7.38Q112.82 6.85 113.57 6.56L113.57 6.56L113.57 6.56Q114.31 6.26 115.17 6.26L115.17 6.26L115.17 6.26Q115.63 6.26 116.02 6.33L116.02 6.33L116.02 6.33Q116.41 6.41 116.72 6.48L116.72 6.48ZM124.17 12.56L124.17 12.56L124.17 12.56Q124.02 12.70 123.79 12.91L123.79 12.91L123.79 12.91Q123.56 13.12 123.26 13.31L123.26 13.31L123.26 13.31Q122.95 13.51 122.59 13.64L122.59 13.64L122.59 13.64Q122.23 13.78 121.84 13.78L121.84 13.78L121.84 13.78Q121.47 13.78 121.12 13.64L121.12 13.64L121.12 13.64Q120.76 13.51 120.48 13.25L120.48 13.25L120.48 13.25Q120.20 12.99 120.02 12.60L120.02 12.60L120.02 12.60Q119.85 12.22 119.85 11.72L119.85 11.72L119.85 11.72Q119.85 11.28 120.02 10.85L120.02 10.85L120.02 10.85Q120.18 10.42 120.59 10.08L120.59 10.08L120.59 10.08Q121.00 9.74 121.70 9.53L121.70 9.53L121.70 9.53Q122.40 9.32 123.46 9.32L123.46 9.32L124.20 9.32L124.20 8.59L124.20 8.59Q124.20 8.26 124.09 8.00L124.09 8.00L124.09 8.00Q123.98 7.74 123.77 7.55L123.77 7.55L123.77 7.55Q123.56 7.36 123.27 7.26L123.27 7.26L123.27 7.26Q122.99 7.16 122.64 7.16L122.64 7.16L122.64 7.16Q122.39 7.16 122.11 7.21L122.11 7.21L122.11 7.21Q121.82 7.26 121.55 7.35L121.55 7.35L121.55 7.35Q121.27 7.44 121.02 7.57L121.02 7.57L121.02 7.57Q120.76 7.70 120.58 7.85L120.58 7.85L120.46 7.78L120.24 6.98L120.24 6.98Q120.63 6.75 120.99 6.61L120.99 6.61L120.99 6.61Q121.34 6.47 121.67 6.40L121.67 6.40L121.67 6.40Q121.99 6.32 122.27 6.29L122.27 6.29L122.27 6.29Q122.55 6.26 122.79 6.26L122.79 6.26L122.79 6.26Q123.44 6.26 123.89 6.42L123.89 6.42L123.89 6.42Q124.35 6.58 124.63 6.86L124.63 6.86L124.63 6.86Q124.92 7.15 125.05 7.55L125.05 7.55L125.05 7.55Q125.18 7.96 125.18 8.45L125.18 8.45L125.18 12.10L125.18 12.10Q125.18 12.17 125.19 12.30L125.19 12.30L125.19 12.30Q125.21 12.43 125.26 12.55L125.26 12.55L125.26 12.55Q125.31 12.67 125.41 12.77L125.41 12.77L125.41 12.77Q125.51 12.86 125.68 12.86L125.68 12.86L125.68 12.86Q125.79 12.86 125.97 12.82L125.97 12.82L125.97 12.82Q126.14 12.78 126.31 12.70L126.31 12.70L126.31 13.33L126.31 13.33Q126.02 13.53 125.76 13.65L125.76 13.65L125.76 13.65Q125.50 13.78 125.21 13.78L125.21 13.78L125.21 13.78Q124.94 13.78 124.75 13.66L124.75 13.66L124.75 13.66Q124.56 13.54 124.44 13.36L124.44 13.36L124.44 13.36Q124.32 13.18 124.26 12.96L124.26 12.96L124.26 12.96Q124.20 12.75 124.17 12.56ZM124.20 11.69L124.20 10.10L123.59 10.10L123.59 10.10Q122.73 10.10 122.20 10.23L122.20 10.23L122.20 10.23Q121.67 10.35 121.37 10.55L121.37 10.55L121.37 10.55Q121.08 10.75 120.98 11.01L120.98 11.01L120.98 11.01Q120.87 11.27 120.87 11.54L120.87 11.54L120.87 11.54Q120.87 11.83 120.96 12.08L120.96 12.08L120.96 12.08Q121.04 12.32 121.21 12.49L121.21 12.49L121.21 12.49Q121.37 12.67 121.61 12.76L121.61 12.76L121.61 12.76Q121.84 12.86 122.14 12.86L122.14 12.86L122.14 12.86Q122.35 12.86 122.58 12.80L122.58 12.80L122.58 12.80Q122.80 12.74 123.05 12.61L123.05 12.61L123.05 12.61Q123.30 12.48 123.59 12.25L123.59 12.25L123.59 12.25Q123.87 12.02 124.20 11.69L124.20 11.69ZM133.01 12.43L133.01 13.10L133.01 13.10Q132.82 13.23 132.59 13.35L132.59 13.35L132.59 13.35Q132.36 13.47 132.08 13.57L132.08 13.57L132.08 13.57Q131.80 13.67 131.49 13.72L131.49 13.72L131.49 13.72Q131.17 13.78 130.83 13.78L130.83 13.78L130.83 13.78Q130.11 13.78 129.50 13.52L129.50 13.52L129.50 13.52Q128.89 13.25 128.45 12.79L128.45 12.79L128.45 12.79Q128.01 12.32 127.76 11.67L127.76 11.67L127.76 11.67Q127.52 11.02 127.52 10.25L127.52 10.25L127.52 10.25Q127.52 9.38 127.83 8.64L127.83 8.64L127.83 8.64Q128.13 7.91 128.66 7.38L128.66 7.38L128.66 7.38Q129.18 6.86 129.87 6.56L129.87 6.56L129.87 6.56Q130.57 6.26 131.34 6.26L131.34 6.26L131.34 6.26Q131.56 6.26 131.80 6.29L131.80 6.29L131.80 6.29Q132.04 6.31 132.27 6.36L132.27 6.36L132.27 6.36Q132.50 6.41 132.70 6.47L132.70 6.47L132.70 6.47Q132.89 6.54 133.02 6.62L133.02 6.62L132.79 7.53L132.63 7.60L132.63 7.60Q132.49 7.51 132.31 7.42L132.31 7.42L132.31 7.42Q132.13 7.34 131.92 7.28L131.92 7.28L131.92 7.28Q131.72 7.23 131.51 7.19L131.51 7.19L131.51 7.19Q131.30 7.16 131.09 7.16L131.09 7.16L131.09 7.16Q130.61 7.16 130.15 7.35L130.15 7.35L130.15 7.35Q129.69 7.55 129.33 7.92L129.33 7.92L129.33 7.92Q128.97 8.29 128.76 8.83L128.76 8.83L128.76 8.83Q128.54 9.37 128.54 10.07L128.54 10.07L128.54 10.07Q128.54 10.76 128.76 11.28L128.76 11.28L128.76 11.28Q128.97 11.81 129.34 12.15L129.34 12.15L129.34 12.15Q129.71 12.50 130.18 12.68L130.18 12.68L130.18 12.68Q130.66 12.86 131.18 12.86L131.18 12.86L131.18 12.86Q131.55 12.86 132.04 12.76L132.04 12.76L132.04 12.76Q132.53 12.67 133.01 12.43L133.01 12.43ZM139.08 12.56L139.08 12.56L139.08 12.56Q138.93 12.70 138.69 12.91L138.69 12.91L138.69 12.91Q138.46 13.12 138.16 13.31L138.16 13.31L138.16 13.31Q137.85 13.51 137.49 13.64L137.49 13.64L137.49 13.64Q137.14 13.78 136.74 13.78L136.74 13.78L136.74 13.78Q136.38 13.78 136.02 13.64L136.02 13.64L136.02 13.64Q135.67 13.51 135.38 13.25L135.38 13.25L135.38 13.25Q135.10 12.99 134.92 12.60L134.92 12.60L134.92 12.60Q134.75 12.22 134.75 11.72L134.75 11.72L134.75 11.72Q134.75 11.28 134.92 10.85L134.92 10.85L134.92 10.85Q135.08 10.42 135.50 10.08L135.50 10.08L135.50 10.08Q135.91 9.74 136.60 9.53L136.60 9.53L136.60 9.53Q137.30 9.32 138.37 9.32L138.37 9.32L139.10 9.32L139.10 8.59L139.10 8.59Q139.10 8.26 138.99 8.00L138.99 8.00L138.99 8.00Q138.88 7.74 138.67 7.55L138.67 7.55L138.67 7.55Q138.46 7.36 138.17 7.26L138.17 7.26L138.17 7.26Q137.89 7.16 137.54 7.16L137.54 7.16L137.54 7.16Q137.29 7.16 137.01 7.21L137.01 7.21L137.01 7.21Q136.73 7.26 136.45 7.35L136.45 7.35L136.45 7.35Q136.17 7.44 135.92 7.57L135.92 7.57L135.92 7.57Q135.67 7.70 135.48 7.85L135.48 7.85L135.36 7.78L135.14 6.98L135.14 6.98Q135.53 6.75 135.89 6.61L135.89 6.61L135.89 6.61Q136.25 6.47 136.57 6.40L136.57 6.40L136.57 6.40Q136.90 6.32 137.18 6.29L137.18 6.29L137.18 6.29Q137.46 6.26 137.70 6.26L137.70 6.26L137.70 6.26Q138.34 6.26 138.79 6.42L138.79 6.42L138.79 6.42Q139.25 6.58 139.54 6.86L139.54 6.86L139.54 6.86Q139.82 7.15 139.95 7.55L139.95 7.55L139.95 7.55Q140.08 7.96 140.08 8.45L140.08 8.45L140.08 12.10L140.08 12.10Q140.08 12.17 140.10 12.30L140.10 12.30L140.10 12.30Q140.11 12.43 140.16 12.55L140.16 12.55L140.16 12.55Q140.21 12.67 140.31 12.77L140.31 12.77L140.31 12.77Q140.41 12.86 140.58 12.86L140.58 12.86L140.58 12.86Q140.69 12.86 140.87 12.82L140.87 12.82L140.87 12.82Q141.05 12.78 141.22 12.70L141.22 12.70L141.22 13.33L141.22 13.33Q140.92 13.53 140.66 13.65L140.66 13.65L140.66 13.65Q140.40 13.78 140.12 13.78L140.12 13.78L140.12 13.78Q139.84 13.78 139.65 13.66L139.65 13.66L139.65 13.66Q139.47 13.54 139.34 13.36L139.34 13.36L139.34 13.36Q139.22 13.18 139.16 12.96L139.16 12.96L139.16 12.96Q139.10 12.75 139.08 12.56ZM139.10 11.69L139.10 10.10L138.50 10.10L138.50 10.10Q137.63 10.10 137.10 10.23L137.10 10.23L137.10 10.23Q136.57 10.35 136.27 10.55L136.27 10.55L136.27 10.55Q135.98 10.75 135.88 11.01L135.88 11.01L135.88 11.01Q135.78 11.27 135.78 11.54L135.78 11.54L135.78 11.54Q135.78 11.83 135.86 12.08L135.86 12.08L135.86 12.08Q135.95 12.32 136.11 12.49L136.11 12.49L136.11 12.49Q136.27 12.67 136.51 12.76L136.51 12.76L136.51 12.76Q136.75 12.86 137.05 12.86L137.05 12.86L137.05 12.86Q137.25 12.86 137.48 12.80L137.48 12.80L137.48 12.80Q137.70 12.74 137.95 12.61L137.95 12.61L137.95 12.61Q138.20 12.48 138.49 12.25L138.49 12.25L138.49 12.25Q138.78 12.02 139.10 11.69L139.10 11.69Z"></path></g><!----><g data-v-423bf9ae="" id="22569d98-9155-41b9-b3dc-ac3968812afe" transform="matrix(1.346378382672281,0,0,1.346378382672281,0.6817143467024493,0)" stroke="none" fill="black"><path d="M83.175 25.884c.597 2.327.511 4.935.331 7.584 8.77 5.6 10.276 8.98 10.213 9.534-.013.02-1.678 2.005-11.28 1.303a75.363 75.363 0 0 1-3.88-.392 33.254 33.254 0 0 0 1.695-10.489C80.254 14.993 65.26 0 46.829 0 32.708 0 20.612 8.807 15.724 21.213c-8.06-5.29-9.491-8.485-9.431-9.023.013-.021 1.417-2.143 11.008-1.444 1.285-2.369 3.343-4.278 5.468-5.786-1.348-.16-3.309-.243-4.732-.347C7.714 3.858 1.936 5.644.372 10.075c-1.67 4.73 2.283 10.134 12.085 16.525.473.308.985.616 1.479.925a33.432 33.432 0 0 0-.532 5.898c0 18.43 14.994 33.423 33.425 33.423 12.443 0 23.313-6.84 29.066-16.952 2.139.312 4.178.544 6.083.685 10.321.753 16.098-1.031 17.662-5.464 2.174-6.149-5.789-13.115-16.465-19.231zM46.829 60.377c-14.864 0-26.956-12.089-26.956-26.954 0-.809.042-1.608.113-2.399 6.032 3.25 13.04 6.419 20.591 9.274.203-2.183.975-4.2 2.167-5.905-7.947-3.009-15.278-6.372-21.383-9.786 3.662-10.545 13.691-18.14 25.467-18.14 14.862 0 26.956 12.092 26.956 26.955 0 3.325-.609 6.508-1.714 9.45-2.212-.42-4.51-.918-6.875-1.49l.002.059c0 2.189-.579 4.243-1.585 6.029 1.847.447 3.655.849 5.421 1.21-4.864 7.06-13.002 11.697-22.204 11.697z"></path><circle cx="52.67" cy="41.599" r="8.356"></circle></g><!----><g data-v-423bf9ae="" id="25fd2ce3-0fda-411b-8732-3210542da2a1" fill="black" transform="matrix(1.652198336461114,0,0,1.652198336461114,153.7769061861091,55.208623002564266)"><path d="M0.52 3.51C0.52 3.75 0.60 3.79 0.77 3.79L1.62 3.77C1.68 3.77 1.74 5.52 1.74 7.11L1.74 11.63C1.74 11.93 1.72 12.18 1.69 12.18L0.97 12.18C0.74 12.18 0.67 12.19 0.67 12.39C0.67 12.63 0.70 12.68 0.90 12.68C1.02 12.68 1.97 12.64 2.39 12.64C2.58 12.64 3.09 12.67 3.74 12.67C5.29 12.67 7.70 12.43 7.70 10.23C7.70 8.27 5.88 7.94 5.19 7.84C5.11 7.83 5.10 7.83 5.10 7.81C5.10 7.80 5.14 7.78 5.21 7.76C5.85 7.52 7.29 6.90 7.29 5.54C7.29 3.81 5.82 3.25 4.14 3.25C3.57 3.25 2.97 3.29 2.42 3.29C2.00 3.29 0.99 3.26 0.77 3.26C0.59 3.26 0.52 3.28 0.52 3.51ZM2.97 8.19C2.97 8.12 2.97 8.08 3.08 8.08L3.56 8.08C4.17 8.08 4.82 8.09 5.19 8.22C6.06 8.51 6.38 9.16 6.38 10.14C6.38 11.17 5.92 12.18 3.91 12.18L3.07 12.18C2.98 12.18 2.97 9.02 2.97 8.19ZM2.97 7.59L2.97 6.92C2.97 5.87 2.98 3.71 3.02 3.68C3.08 3.65 3.39 3.63 3.60 3.63C5.01 3.63 6.03 4.41 6.03 5.77C6.03 6.92 5.31 7.46 4.68 7.66C4.59 7.69 4.49 7.70 4.41 7.70C4.33 7.70 4.19 7.69 3.95 7.69L3.15 7.69C2.97 7.69 2.97 7.67 2.97 7.59ZM15.81 3.51C15.81 3.75 15.89 3.77 16.06 3.77L16.59 3.77C16.65 3.77 16.65 4.12 16.65 4.55C16.65 5.66 16.63 8.96 16.63 9.42C16.63 11.13 16.88 12.80 19.74 12.80C20.82 12.80 21.98 12.38 22.64 12.00C22.89 11.86 23.18 11.72 23.27 11.72C23.53 11.72 23.80 12.74 24.14 12.74C24.46 12.74 24.47 12.35 24.47 12.25C24.47 11.96 24.53 10.08 24.57 8.16C24.63 6.12 24.61 3.77 24.72 3.77L25.05 3.77C25.27 3.77 25.34 3.75 25.34 3.56C25.34 3.32 25.30 3.26 25.10 3.26C24.96 3.26 24.43 3.30 24.01 3.30C23.59 3.30 22.79 3.26 22.57 3.26C22.39 3.26 22.29 3.28 22.29 3.51C22.29 3.75 22.40 3.77 22.57 3.77L23.27 3.77C23.34 3.77 23.35 4.30 23.35 4.87L23.35 9.14C23.35 11.19 23.35 11.12 23.02 11.34C22.62 11.61 21.81 12.08 20.64 12.08C18.66 12.08 17.86 11.17 17.86 9.41C17.86 8.82 17.93 3.77 18.05 3.77L18.96 3.77C19.18 3.77 19.22 3.75 19.22 3.56C19.22 3.32 19.21 3.26 19.01 3.26C18.69 3.26 17.81 3.30 17.39 3.30C16.97 3.30 16.28 3.26 16.06 3.26C15.88 3.26 15.81 3.28 15.81 3.51ZM33.24 12.39C33.24 12.63 33.28 12.68 33.47 12.68C33.80 12.68 34.55 12.64 35.27 12.64C35.92 12.64 36.72 12.68 36.95 12.68C37.11 12.68 37.14 12.61 37.14 12.40C37.14 12.24 37.11 12.18 36.95 12.18L35.98 12.18C35.88 12.18 35.85 9.55 35.85 7.76L35.85 5.87C35.85 5.14 35.88 3.70 35.98 3.70L36.89 3.70C37.11 3.70 37.14 3.68 37.14 3.49C37.14 3.25 37.11 3.19 36.95 3.19C36.62 3.19 35.95 3.23 35.29 3.23C34.48 3.23 33.77 3.19 33.54 3.19C33.36 3.19 33.29 3.21 33.29 3.44C33.29 3.68 33.38 3.70 33.54 3.70L34.47 3.70C34.51 3.70 34.58 4.79 34.58 5.71L34.58 7.08C34.58 8.92 34.57 12.18 34.45 12.18L33.53 12.18C33.31 12.18 33.24 12.19 33.24 12.39ZM45.04 12.39C45.04 12.63 45.07 12.68 45.26 12.68C45.58 12.68 46.55 12.64 46.97 12.64C47.39 12.64 51.74 12.68 52.07 12.68C52.33 12.68 52.40 12.66 52.42 12.49C52.47 12.08 52.71 10.72 52.71 10.60C52.71 10.47 52.56 10.44 52.39 10.43C52.29 10.42 52.21 10.46 52.19 10.56L52.02 11.76C51.98 12.05 51.97 12.03 51.74 12.04C51.59 12.05 49.08 12.12 47.66 12.12C47.61 12.12 47.57 11.38 47.57 10.54L47.57 6.66C47.57 5.40 47.59 3.70 47.68 3.70L48.66 3.70C48.90 3.70 48.93 3.63 48.93 3.44C48.93 3.23 48.92 3.19 48.68 3.19C48.36 3.19 47.42 3.23 47.00 3.23C46.58 3.23 45.64 3.19 45.42 3.19C45.19 3.19 45.14 3.22 45.14 3.44C45.14 3.65 45.18 3.70 45.37 3.70L46.20 3.70C46.24 3.70 46.27 4.23 46.27 4.90L46.27 8.13C46.27 10.07 46.24 12.18 46.16 12.18L45.32 12.18C45.09 12.18 45.04 12.21 45.04 12.39ZM60.26 12.46C60.26 12.63 60.27 12.70 60.45 12.70C60.61 12.70 61.84 12.64 62.23 12.64C63.08 12.64 63.97 12.70 64.82 12.70C67.44 12.70 69.83 11.07 69.83 7.91C69.83 4.89 67.49 3.07 64.46 3.07C63.90 3.07 62.64 3.23 61.60 3.23C61.12 3.23 60.66 3.22 60.61 3.22C60.42 3.22 60.41 3.32 60.41 3.49C60.41 3.68 60.48 3.70 60.61 3.70L61.57 3.67C61.60 3.67 61.60 4.20 61.60 4.72C61.60 5.91 61.52 12.21 61.43 12.21L60.54 12.21C60.35 12.21 60.26 12.22 60.26 12.46ZM62.83 11.40C62.83 9.46 62.83 7.52 62.85 5.60C62.85 5.03 62.89 3.61 62.93 3.60C63.22 3.53 63.81 3.51 64.16 3.51C66.72 3.51 68.33 5.75 68.33 7.73C68.33 8.95 68.29 12.25 63.62 12.25C63.35 12.25 62.94 12.25 62.85 12.21C62.83 12.19 62.83 11.79 62.83 11.40ZM87.74 3.49C87.74 3.72 87.85 3.74 88.02 3.74L88.63 3.74C88.69 3.74 88.76 4.79 88.76 5.71C88.76 5.80 88.82 8.27 88.82 9.83L88.82 11.17C88.82 11.84 88.80 12.18 88.75 12.18L88.16 12.18C87.93 12.18 87.86 12.19 87.86 12.39C87.86 12.63 87.88 12.68 88.07 12.68C88.28 12.68 89.12 12.64 89.54 12.64C89.96 12.64 90.90 12.68 91.22 12.68C91.39 12.68 91.42 12.61 91.42 12.40C91.42 12.24 91.39 12.18 91.22 12.18L90.09 12.18C90.03 12.18 90.05 10.16 90.01 8.33C90.01 8.08 89.99 8.09 90.19 8.09L92.61 8.09C93.31 8.09 93.34 8.19 93.34 8.30L93.34 9.16C93.34 9.28 93.52 9.28 93.63 9.28C93.73 9.28 93.86 9.28 93.86 9.17C93.86 8.99 93.83 8.33 93.83 7.83C93.83 7.32 93.86 6.82 93.86 6.69C93.86 6.58 93.74 6.58 93.62 6.58C93.45 6.58 93.34 6.58 93.34 6.71L93.34 7.45C93.34 7.62 92.89 7.63 92.61 7.63L90.19 7.63C89.98 7.63 90.01 7.66 90.01 7.45C89.99 7.13 89.98 6.15 89.98 5.26C89.98 4.52 89.99 3.71 90.06 3.71C91.46 3.71 93.65 3.75 93.94 3.79C93.94 3.96 93.90 4.82 93.90 4.89C93.90 5.04 93.97 5.10 94.15 5.10C94.35 5.10 94.42 5.08 94.42 4.94C94.42 3.85 94.47 3.36 94.47 3.09C94.47 2.93 94.39 2.90 94.19 2.90C94.07 2.90 94.00 2.90 93.97 3.11C93.95 3.25 94.02 3.25 93.07 3.25C92.47 3.25 90.19 3.29 89.45 3.29C88.96 3.29 88.02 3.25 87.92 3.25C87.79 3.25 87.74 3.30 87.74 3.49ZM102.51 8.15C102.51 11.17 104.85 12.80 107.10 12.80C109.89 12.80 111.86 10.89 111.86 8.06C111.86 5.33 110.11 3.11 107.31 3.11C104.71 3.11 102.51 5.10 102.51 8.15ZM103.91 7.77C103.91 5.64 105.20 3.58 107.17 3.58C109.41 3.58 110.49 5.81 110.49 7.94C110.49 10.08 109.38 12.32 107.11 12.32C105.13 12.32 103.91 10.28 103.91 7.77ZM119.97 3.51C119.97 3.72 120.04 3.79 120.23 3.79L121.04 3.77C121.14 3.77 121.18 6.61 121.18 8.55L121.18 10.42C121.18 11.30 121.17 12.18 121.13 12.18L120.53 12.18C120.30 12.18 120.23 12.19 120.23 12.39C120.23 12.63 120.27 12.68 120.47 12.68C120.60 12.68 121.42 12.64 121.84 12.64C122.26 12.64 123.03 12.68 123.35 12.68C123.52 12.68 123.55 12.61 123.55 12.40C123.55 12.24 123.52 12.18 123.35 12.18L122.54 12.18C122.47 12.18 122.39 9.18 122.39 8.37C122.39 8.30 122.39 8.26 122.50 8.26C122.89 8.26 123.49 8.27 123.79 8.27C126.03 8.32 126.17 10.00 126.17 11.68L126.17 12.49C126.17 12.61 126.22 12.64 126.32 12.64C126.32 12.64 127.76 12.68 128.24 12.68C128.41 12.68 128.46 12.64 128.46 12.53C128.46 12.24 128.41 12.18 128.25 12.18L127.61 12.18C127.51 12.18 127.48 12.14 127.46 11.31C127.37 8.99 126.00 8.34 125.09 8.05C124.95 8.01 124.98 8.01 125.09 7.95C125.68 7.69 126.99 6.94 126.99 5.63C126.99 3.63 125.30 3.21 123.90 3.21C123.58 3.21 122.29 3.29 121.87 3.29C121.45 3.29 120.47 3.26 120.25 3.26C120.06 3.26 119.97 3.28 119.97 3.51ZM122.39 7.80L122.39 4.40C122.39 4.05 122.42 3.68 122.46 3.68C122.67 3.65 122.95 3.65 123.17 3.65C124.47 3.65 125.72 4.47 125.72 5.82C125.72 6.99 125.17 7.57 124.52 7.88C124.47 7.90 124.43 7.90 124.36 7.90C123.89 7.88 123.17 7.88 122.57 7.87C122.40 7.87 122.39 7.85 122.39 7.80ZM145.47 5.01C145.47 5.17 145.66 5.17 145.78 5.17C145.94 5.17 145.98 5.15 145.99 4.97L146.10 3.89C146.12 3.81 146.66 3.75 147.42 3.75L149.41 3.75C149.46 3.75 149.49 4.35 149.49 4.97C149.49 6.43 149.44 12.18 149.31 12.18L148.44 12.18C148.22 12.18 148.18 12.19 148.18 12.39C148.18 12.63 148.19 12.68 148.39 12.68C148.71 12.68 149.69 12.64 150.11 12.64C150.53 12.64 151.47 12.68 151.79 12.68C151.96 12.68 151.98 12.61 151.98 12.40C151.98 12.24 151.96 12.18 151.79 12.18L150.79 12.18C150.77 12.18 150.77 11.76 150.77 11.31C150.77 9.56 150.85 5.96 150.85 5.92C150.86 5.18 150.86 3.75 150.96 3.75L152.57 3.75C153.29 3.75 154.11 3.78 154.11 3.85C154.11 3.99 154.07 4.90 154.07 4.97C154.07 5.12 154.14 5.17 154.32 5.17C154.52 5.17 154.59 5.17 154.59 5.03C154.59 3.93 154.64 3.40 154.64 3.14C154.64 2.94 154.56 2.94 154.36 2.94C154.21 2.94 154.15 2.98 154.14 3.16C154.14 3.23 153.50 3.28 152.66 3.28L147.66 3.28C147 3.28 146.19 3.28 146.19 3.21L146.19 3.07C146.19 2.94 146.06 2.94 145.96 2.94C145.74 2.94 145.71 3.00 145.70 3.19C145.64 3.89 145.47 4.97 145.47 5.01ZM161.91 8.15C161.91 11.17 164.25 12.80 166.50 12.80C169.29 12.80 171.26 10.89 171.26 8.06C171.26 5.33 169.51 3.11 166.71 3.11C164.11 3.11 161.91 5.10 161.91 8.15ZM163.31 7.77C163.31 5.64 164.60 3.58 166.57 3.58C168.81 3.58 169.89 5.81 169.89 7.94C169.89 10.08 168.78 12.32 166.52 12.32C164.53 12.32 163.31 10.28 163.31 7.77ZM179.30 12.39C179.30 12.63 179.33 12.68 179.52 12.68C179.76 12.68 180.26 12.64 180.68 12.64C181.10 12.64 181.59 12.68 181.92 12.68C182.08 12.68 182.11 12.61 182.11 12.40C182.11 12.24 182.08 12.18 181.92 12.18L180.95 12.18C180.89 12.18 180.88 11.54 180.88 10.79C180.88 8.96 180.92 6.13 180.99 4.28C181.02 3.88 181.05 3.91 181.19 4.27L184.45 12.32C184.55 12.54 184.62 12.74 184.73 12.74C184.83 12.74 184.90 12.63 184.98 12.45C185.32 11.79 185.50 11.75 185.77 11.09L188.36 4.47C188.48 4.16 188.52 4.02 188.54 4.47C188.57 5.66 188.61 8.47 188.61 9.74C188.61 10.99 188.57 12.18 188.51 12.18L187.88 12.18C187.66 12.18 187.59 12.19 187.59 12.39C187.59 12.63 187.61 12.68 187.81 12.68C188.01 12.68 188.71 12.64 189.31 12.64C189.73 12.64 190.48 12.68 190.81 12.68C190.97 12.68 191.00 12.61 191.00 12.40C191.00 12.22 190.95 12.18 190.78 12.18L190.05 12.18C189.94 12.18 189.84 8.44 189.84 6.03L189.84 4.77C189.84 4.17 189.87 3.77 189.91 3.70L190.57 3.70C190.79 3.70 190.83 3.68 190.83 3.49C190.83 3.25 190.82 3.19 190.62 3.19C190.30 3.19 189.62 3.23 189.20 3.23L188.52 3.23C188.30 3.23 188.27 3.29 188.16 3.58L185.42 10.72C185.33 10.95 185.30 11.02 185.19 10.74L182.25 3.40C182.18 3.22 182.13 3.19 181.99 3.19C181.90 3.19 181.41 3.23 181.10 3.23C180.60 3.23 179.75 3.19 179.55 3.19C179.41 3.19 179.41 3.26 179.41 3.47C179.41 3.64 179.41 3.70 179.55 3.70L180.25 3.70C180.52 3.70 180.52 3.72 180.52 3.84C180.52 4.82 180.31 9.94 180.26 10.79C180.22 11.55 180.22 12.18 180.17 12.18L179.59 12.18C179.37 12.18 179.30 12.19 179.30 12.39ZM198.97 8.15C198.97 11.17 201.31 12.80 203.56 12.80C206.35 12.80 208.32 10.89 208.32 8.06C208.32 5.33 206.57 3.11 203.77 3.11C201.17 3.11 198.97 5.10 198.97 8.15ZM200.37 7.77C200.37 5.64 201.66 3.58 203.63 3.58C205.87 3.58 206.95 5.81 206.95 7.94C206.95 10.08 205.84 12.32 203.57 12.32C201.59 12.32 200.37 10.28 200.37 7.77ZM216.43 3.51C216.43 3.72 216.50 3.79 216.69 3.79L217.50 3.77C217.60 3.77 217.64 6.61 217.64 8.55L217.64 10.42C217.64 11.30 217.63 12.18 217.59 12.18L216.99 12.18C216.76 12.18 216.69 12.19 216.69 12.39C216.69 12.63 216.73 12.68 216.93 12.68C217.06 12.68 217.88 12.64 218.30 12.64C218.72 12.64 219.49 12.68 219.81 12.68C219.98 12.68 220.01 12.61 220.01 12.40C220.01 12.24 219.98 12.18 219.81 12.18L219.00 12.18C218.93 12.18 218.85 9.18 218.85 8.37C218.85 8.30 218.85 8.26 218.96 8.26C219.35 8.26 219.95 8.27 220.25 8.27C222.49 8.32 222.63 10.00 222.63 11.68L222.63 12.49C222.63 12.61 222.68 12.64 222.78 12.64C222.78 12.64 224.22 12.68 224.70 12.68C224.87 12.68 224.92 12.64 224.92 12.53C224.92 12.24 224.87 12.18 224.71 12.18L224.07 12.18C223.97 12.18 223.94 12.14 223.92 11.31C223.83 8.99 222.46 8.34 221.55 8.05C221.41 8.01 221.44 8.01 221.55 7.95C222.14 7.69 223.45 6.94 223.45 5.63C223.45 3.63 221.76 3.21 220.36 3.21C220.04 3.21 218.75 3.29 218.33 3.29C217.91 3.29 216.93 3.26 216.71 3.26C216.52 3.26 216.43 3.28 216.43 3.51ZM218.85 7.80L218.85 4.40C218.85 4.05 218.88 3.68 218.92 3.68C219.13 3.65 219.41 3.65 219.63 3.65C220.93 3.65 222.18 4.47 222.18 5.82C222.18 6.99 221.63 7.57 220.98 7.88C220.93 7.90 220.89 7.90 220.82 7.90C220.35 7.88 219.63 7.88 219.03 7.87C218.86 7.87 218.85 7.85 218.85 7.80ZM232.40 3.51C232.40 3.72 232.47 3.79 232.67 3.79L233.48 3.77C233.58 3.77 233.62 6.61 233.62 8.55L233.62 10.42C233.62 11.30 233.60 12.18 233.56 12.18L232.96 12.18C232.74 12.18 232.67 12.19 232.67 12.39C232.67 12.63 232.71 12.68 232.90 12.68C233.03 12.68 233.86 12.64 234.28 12.64C234.70 12.64 235.47 12.68 235.79 12.68C235.96 12.68 235.98 12.61 235.98 12.40C235.98 12.24 235.96 12.18 235.79 12.18L234.98 12.18C234.91 12.18 234.82 9.18 234.82 8.37C234.82 8.30 234.82 8.26 234.93 8.26C235.33 8.26 235.93 8.27 236.22 8.27C238.46 8.32 238.60 10.00 238.60 11.68L238.60 12.49C238.60 12.61 238.66 12.64 238.76 12.64C238.76 12.64 240.20 12.68 240.67 12.68C240.84 12.68 240.90 12.64 240.90 12.53C240.90 12.24 240.84 12.18 240.69 12.18L240.04 12.18C239.95 12.18 239.92 12.14 239.89 11.31C239.81 8.99 238.43 8.34 237.52 8.05C237.38 8.01 237.41 8.01 237.52 7.95C238.11 7.69 239.43 6.94 239.43 5.63C239.43 3.63 237.73 3.21 236.33 3.21C236.01 3.21 234.72 3.29 234.30 3.29C233.88 3.29 232.90 3.26 232.68 3.26C232.50 3.26 232.40 3.28 232.40 3.51ZM234.82 7.80L234.82 4.40C234.82 4.05 234.85 3.68 234.89 3.68C235.10 3.65 235.38 3.65 235.61 3.65C236.91 3.65 238.15 4.47 238.15 5.82C238.15 6.99 237.61 7.57 236.95 7.88C236.91 7.90 236.87 7.90 236.80 7.90C236.32 7.88 235.61 7.88 235.00 7.87C234.84 7.87 234.82 7.85 234.82 7.80ZM248.30 8.15C248.30 11.17 250.64 12.80 252.90 12.80C255.68 12.80 257.66 10.89 257.66 8.06C257.66 5.33 255.91 3.11 253.11 3.11C250.50 3.11 248.30 5.10 248.30 8.15ZM249.70 7.77C249.70 5.64 250.99 3.58 252.97 3.58C255.21 3.58 256.28 5.81 256.28 7.94C256.28 10.08 255.18 12.32 252.91 12.32C250.92 12.32 249.70 10.28 249.70 7.77ZM265.06 3.51C265.06 3.75 265.17 3.77 265.34 3.77L265.85 3.77C265.93 3.77 268.07 10.99 268.10 11.07C268.45 12.14 268.56 12.99 268.87 12.99C269.09 12.99 269.19 12.67 269.47 12.26C269.63 12.05 269.72 12.01 269.86 11.66L271.85 6.45C271.92 6.29 271.95 6.20 271.98 6.20C272.01 6.20 272.03 6.29 272.08 6.45C272.68 8.51 273.35 11.03 273.36 11.07C273.71 12.14 273.83 12.99 274.13 12.99C274.36 12.99 274.46 12.67 274.74 12.26C274.89 12.05 274.99 12.01 275.13 11.66L278.22 4.06C278.32 3.81 278.32 3.77 278.68 3.77C278.92 3.77 278.98 3.71 278.98 3.53C278.98 3.32 278.94 3.26 278.74 3.26C278.60 3.26 278.29 3.30 277.79 3.30C277.05 3.30 276.54 3.26 276.35 3.26C276.16 3.26 276.07 3.28 276.07 3.51C276.07 3.75 276.18 3.77 276.35 3.77L277.26 3.77C277.33 3.77 277.34 3.81 277.34 3.95C277.34 4.63 275.74 8.72 275.03 10.63C274.89 10.99 274.82 11.17 274.78 11.17C274.72 11.17 274.67 10.99 274.54 10.60C274.46 10.30 273.53 7.18 273 5.22C272.96 5.05 272.75 4.17 272.75 3.85C272.75 3.81 272.75 3.79 272.76 3.77L273.64 3.77C273.83 3.77 273.92 3.75 273.92 3.56C273.92 3.32 273.88 3.26 273.69 3.26C273.36 3.26 272.43 3.30 272.01 3.30C271.59 3.30 270.68 3.26 270.45 3.26C270.27 3.26 270.17 3.28 270.17 3.51C270.17 3.75 270.28 3.77 270.45 3.77L271.25 3.77C271.29 3.77 271.47 4.27 271.63 4.83C271.68 5.05 271.73 5.15 271.73 5.25C271.73 5.31 271.73 5.38 271.68 5.49L269.68 10.60C269.58 10.82 269.56 10.95 269.51 10.95C269.47 10.95 269.44 10.84 269.36 10.60C269.28 10.32 268.27 7.27 267.67 5.22C267.62 5.08 267.30 3.96 267.29 3.85C267.30 3.77 267.34 3.77 267.39 3.77L268.09 3.77C268.31 3.77 268.38 3.75 268.38 3.56C268.38 3.32 268.34 3.26 268.14 3.26C267.82 3.26 267.11 3.30 266.69 3.30C266.27 3.30 265.57 3.26 265.34 3.26C265.16 3.26 265.06 3.28 265.06 3.51Z"></path></g></svg>